<svg width="29" height="29" viewBox="0 0 29 29" fill="none" xmlns="http://www.w3.org/2000/svg">
<g id="Frame">
<path id="Vector" d="M14.5 29C22.5081 29 29 22.5081 29 14.5C29 6.49187 22.5081 0 14.5 0C6.49187 0 0 6.49187 0 14.5C0 22.5081 6.49187 29 14.5 29Z" fill="#CBD8F1"/>
<path id="Vector_2" d="M11.6158 14.0921C11.2616 13.7521 10.6989 13.7636 10.359 14.1177C10.019 14.4719 10.0305 15.0346 10.3846 15.3746L11.6158 14.0921ZM14.403 18L13.7874 18.6412L14.5053 19.3304L15.1094 18.5396L14.403 18ZM20.4566 11.5396C20.7546 11.1495 20.6799 10.5916 20.2898 10.2936C19.8997 9.99564 19.3418 10.0703 19.0438 10.4604L20.4566 11.5396ZM10.3846 15.3746L13.7874 18.6412L15.0186 17.3588L11.6158 14.0921L10.3846 15.3746ZM15.1094 18.5396L20.4566 11.5396L19.0438 10.4604L13.6966 17.4604L15.1094 18.5396Z" fill="#638BD9"/>
</g>
</svg>
